# xmcd CD database file
#
# Track frame offsets:
#	150
#	20082
#	35344
#	52864
#	70513
#	89903
#	105861
#	122943
#	137656
#	150615
#	167721
#	183799
#	196119
#	211605
#	226116
#	242432
#
# Disc length: 3459 seconds
#
# Revision: 0
# Processed by: cddbd v1.5.2PL0 Copyright (c) Steve Scherf et al.
# Submitted via: jetAudio 7
#
DISCID=c10d8110
DTITLE=RODRIGO NESSRALLA - O AMOR CANTADO EM VERSOS SERTANEJOS
DYEAR=1900
DGENRE=Country
TTITLE0=ESPELHO QUEBRADO
TTITLE1=DUAS HORAS DE AMOR
TTITLE2=PEDACINHOS
TTITLE3=AMOR PELA METADE
TTITLE4=DOCE DE CIDRA
TTITLE5=SUITE Nº 6
TTITLE6=A DAMA DE BRANCO
TTITLE7=FALHASTE CORAÇÃO
TTITLE8=LEMBRANÇAS DE QUEM AMO
TTITLE9=AMOR E SAUDADE
TTITLE10=DEVOLVA A PASSAGEM
TTITLE11=ANJO MULHER
TTITLE12=CONFISSÃO
TTITLE13=VIAGEM
TTITLE14=ESQUEMA MONTADO
TTITLE15=MEU FILHO GABRIEL
EXTD=
EXTT0=
EXTT1=
EXTT2=
EXTT3=
EXTT4=
EXTT5=
EXTT6=
EXTT7=
EXTT8=
EXTT9=
EXTT10=
EXTT11=
EXTT12=
EXTT13=
EXTT14=
EXTT15=
PLAYORDER=
